<?xml version="1.0" encoding="UTF-8"?>
<svg xmlns="http://www.w3.org/2000/svg" width="32" height="32" viewBox="0 0 32 32" fill="none">
  <path d="M16.0981 10.9328C16.0981 10.9328 13.5066 5.1813 4 6.09925V26.0537C4 26.0537 10.9117 25.0313 16.0981 27.437V10.9328Z" stroke="#1E1E1E" stroke-linecap="round" stroke-linejoin="round"></path>
  <path d="M7.08917 11.4945C7.08917 11.4945 11.5288 11.1874 14.1748 13.7356" stroke="#1E1E1E" stroke-linecap="round" stroke-linejoin="round"></path>
  <path d="M7.08917 15.5589C7.08917 15.5589 11.2048 15.2519 14.1748 17.8" stroke="#1E1E1E" stroke-linecap="round" stroke-linejoin="round"></path>
  <path d="M7.08917 19.6201C7.08917 19.6201 11.0753 19.0535 14.1748 21.8612" stroke="#1E1E1E" stroke-linecap="round" stroke-linejoin="round"></path>
  <path d="M16.0981 10.9328C16.0981 10.9328 18.6896 5.1813 28.1963 6.09925V26.0537C28.1963 26.0537 21.2845 25.0313 16.0981 27.437V10.9328Z" stroke="#1E1E1E" stroke-linecap="round" stroke-linejoin="round"></path>
  <path d="M25.1035 11.4945C25.1035 11.4945 20.6639 11.1874 18.0179 13.7356" stroke="#1E1E1E" stroke-linecap="round" stroke-linejoin="round"></path>
  <path d="M25.1035 15.5589C25.1035 15.5589 20.9879 15.2519 18.0179 17.8" stroke="#1E1E1E" stroke-linecap="round" stroke-linejoin="round"></path>
  <path d="M25.1035 19.6201C25.1035 19.6201 21.1174 19.0535 18.0179 21.8612" stroke="#1E1E1E" stroke-linecap="round" stroke-linejoin="round"></path>
</svg>
