<?xml version="1.0" encoding="UTF-8"?>
<svg xmlns="http://www.w3.org/2000/svg" width="32" height="32" viewBox="0 0 32 32" fill="none">
  <path d="M15.969 1C15.2488 2.36691 13.2684 4.34532 9.91953 5.7482C7.48128 6.76963 4.66227 6.61151 3.65403 6.39568C3.14991 9.92086 3.86825 16.8588 6.0306 21.7194C8.19295 26.5801 11.7558 29.0576 15.969 31M16.031 1C16.7512 2.36691 18.7316 4.34532 22.0805 5.7482C24.5187 6.76963 27.3377 6.61151 28.346 6.39568C28.8501 9.92086 28.1317 16.8588 25.9694 21.7194C23.8071 26.5801 20.2442 29.0576 16.031 31" stroke="#1E1E1E" stroke-linecap="round" stroke-linejoin="round"></path>
  <path fill-rule="evenodd" clip-rule="evenodd" d="M8.19238 9.4375H13.8719V12.2156H12.8383V16.3284H12.911V15.2959H16.0851V19.1065H8.19238V16.3284H8.75412V12.2156H8.19238V9.4375ZM9.13086 11.2781H9.69259V17.2659H9.13086V18.169H15.1467V16.2334H13.8494V17.2659H11.8998V11.2781H12.9334V10.375H9.13086V11.2781Z" fill="#1E1E1E"></path>
  <path fill-rule="evenodd" clip-rule="evenodd" d="M14.6207 13.3086H19.6513C20.9901 13.3086 22.1072 13.679 22.9478 14.4664C23.8261 15.2741 24.2099 16.541 24.2099 18.1431C24.2099 19.7468 23.8253 21.0164 22.9479 21.8309C22.1069 22.611 20.9897 22.9776 19.6513 22.9776H14.6207V20.1995H15.1825V16.0979H14.6207V13.3086ZM15.5592 15.1604H16.1209V21.137H15.5592V22.0401H19.6513C20.8144 22.0401 21.6821 21.7257 22.3092 21.1441C22.9146 20.5819 23.2714 19.6218 23.2714 18.1431C23.2714 16.6637 22.9144 15.7091 22.3109 15.155L22.3073 15.1516C21.6801 14.5635 20.813 14.2461 19.6513 14.2461H15.5592V15.1604ZM18.3282 15.1492H19.449C19.7867 15.1492 20.1232 15.2428 20.3675 15.5084C20.6049 15.7665 20.6822 16.1087 20.6822 16.4484V19.8378C20.6822 20.1796 20.6073 20.5299 20.3631 20.7881C20.118 21.0474 19.7831 21.137 19.449 21.137H18.3282V15.1492ZM19.2667 16.0867V20.1995H19.449C19.6243 20.1995 19.6713 20.1545 19.6809 20.1444C19.6913 20.1333 19.7438 20.0645 19.7438 19.8378V16.4484C19.7438 16.2345 19.6937 16.1614 19.6765 16.1427C19.6662 16.1315 19.6207 16.0867 19.449 16.0867H19.2667Z" fill="#1E1E1E"></path>
</svg>
