<?xml version="1.0" encoding="UTF-8"?>
<svg xmlns="http://www.w3.org/2000/svg" width="50" height="50" viewBox="0 0 50 50" fill="none">
  <path d="M6.00006 36C4.89548 36 3.9887 35.1016 4.10668 34.0034C5.13592 24.4221 13.4898 16.9524 23.6429 16.9524C33.796 16.9524 42.1499 24.4221 43.1791 34.0034C43.2971 35.1016 42.3903 36 41.2858 36L23.6429 35.9999L6.00006 36Z" fill="#D1BCE3"></path>
  <path d="M25.0477 22.9048C23.9431 22.9048 23.03 22.0025 23.2135 20.9133C24.1611 15.2865 29.0562 11 34.9524 11C40.8486 11 45.7437 15.2865 46.6913 20.9133C46.8748 22.0025 45.9617 22.9048 44.8572 22.9048L34.9524 22.9047L25.0477 22.9048Z" fill="#235AF3"></path>
</svg>
