<?xml version="1.0" encoding="UTF-8"?> <svg xmlns="http://www.w3.org/2000/svg" width="50" height="50" viewBox="0 0 50 50" fill="none"><g clip-path="url(#clip0_2632_8683)"><path d="M50 28.0733C50 31.3391 50 35.193 50 37.4813C50 38.5859 49.1046 39.48 48 39.48H34C32.8954 39.48 32 38.5875 32 37.4829C32 34.7113 32 29.8401 32 28.0733C32 23.0623 36.0295 19 41 19C45.9706 19 50 23.0623 50 28.0733Z" fill="#235AF3"></path><circle cx="40.9999" cy="13.12" r="6.12" fill="#235AF3"></circle><path d="M18 28.0733C18 31.3391 18 35.193 18 37.4813C18 38.5859 17.1046 39.48 16 39.48H2.00001C0.895435 39.48 1.64402e-06 38.5875 3.57234e-06 37.4829C8.41098e-06 34.7113 1.64509e-05 29.8401 1.64509e-05 28.0733C1.64509e-05 23.0623 4.02945 19 9.00002 19C13.9706 19 18 23.0623 18 28.0733Z" fill="#235AF3"></path><circle cx="8.99988" cy="13.12" r="6.12" fill="#235AF3"></circle><ellipse cx="24.8457" cy="11" rx="8" ry="7.99999" fill="#D1BCE3"></ellipse><path d="M37 31.4049C37 36.2423 37 42.0235 37 45.004C37 46.1085 36.1046 47 35 47H15C13.8954 47 13 46.1064 13 45.0018C13 41.4073 13 33.985 13 31.4049C13 24.5539 18.3726 19 25 19C31.6274 19 37 24.5539 37 31.4049Z" fill="#D1BCE3"></path><path d="M23.2731 33.7036L18 33.5523L29.9621 22.5L24.7269 32.3774L30 32.5286L18.7769 44.5L23.2731 33.7036Z" fill="#235AF3"></path></g><defs><clipPath id="clip0_2632_8683"><rect width="50" height="50" fill="white"></rect></clipPath></defs></svg> 