<?xml version="1.0" encoding="UTF-8"?>
<svg xmlns="http://www.w3.org/2000/svg" width="30" height="30" viewBox="0 0 30 30" fill="none">
  <path d="M25.798 17.6094C25.798 21.5821 23.8164 25.092 20.7877 27.2046C18.8941 28.5255 16.5911 27.2046 14.1073 27.2046C11.6235 27.2046 9.32053 28.5255 7.42692 27.2046C4.39822 25.092 2.41663 21.5821 2.41663 17.6094C2.41663 11.1528 7.65072 8.00635 14.1073 8.00635C20.5639 8.00635 25.798 11.1528 25.798 17.6094Z" stroke="#1E1E1E"></path>
  <path d="M14.5249 4.24887L14.1089 3.97152C13.993 4.14537 13.9974 4.37296 14.12 4.54218C14.2425 4.71139 14.4574 4.78655 14.6587 4.73063L14.5249 4.24887ZM14.9409 4.52622C15.3348 3.93545 16.048 3.08536 16.8871 2.47066C17.7406 1.84547 18.6082 1.54424 19.3771 1.80054L19.6933 0.851861C18.4581 0.440131 17.2381 0.973949 16.2962 1.66396C15.3399 2.36446 14.5501 3.30972 14.1089 3.97152L14.9409 4.52622ZM19.3771 1.80054C19.604 1.87617 19.6005 1.92525 19.5673 1.86893C19.4925 1.74202 19.5693 1.63993 19.5439 1.67536C19.5089 1.72408 19.4134 1.81578 19.2195 1.9413C19.0346 2.06095 18.7941 2.19007 18.5081 2.32472C17.3569 2.86665 15.6357 3.42139 14.3911 3.76711L14.6587 4.73063C15.9193 4.38048 17.7053 3.8079 18.934 3.22948C19.2429 3.08404 19.5269 2.9335 19.7628 2.78078C19.9897 2.63393 20.2113 2.46056 20.3564 2.25833C20.511 2.0428 20.6308 1.7039 20.4288 1.36116C20.2684 1.08901 19.9675 0.943243 19.6933 0.851861L19.3771 1.80054Z" fill="#1E1E1E"></path>
  <path d="M14.5248 11.3466C14.9424 8.84147 14.9424 3.58067 11.6022 2.57861" stroke="#1E1E1E" stroke-linecap="round" stroke-linejoin="round"></path>
</svg>
