<?xml version="1.0" encoding="UTF-8"?> <svg xmlns="http://www.w3.org/2000/svg" width="157" height="164" viewBox="0 0 157 164" fill="none"><circle cx="68.0498" cy="95.9502" r="68.0498" fill="#F5F3EF"></circle><rect x="64.6475" y="77.671" width="19.0539" height="19.0539" transform="rotate(-12.664 64.6475 77.671)" fill="#235AF3"></rect><rect x="34.0249" y="115.004" width="19.0539" height="19.0539" fill="#235AF3"></rect><rect x="43.5518" y="95.9502" width="19.0539" height="19.0539" fill="#D1BCE3"></rect><rect x="53.0791" y="115.004" width="19.0539" height="19.0539" fill="#FC440F"></rect><rect x="72.1328" y="115.004" width="19.0539" height="19.0539" fill="#002EAD"></rect><path d="M131.663 92.9301C138.645 85.7593 141.153 78.7231 153.023 79.3021L128.372 54.4407C108.048 40.5431 67.0127 12.8888 65.4559 13.4526C63.8991 14.0165 63.0615 17.3541 63.8636 21.7039L68.1091 27.8408C66.5183 28.5955 64.2314 30.0781 63.7948 30.7122C63.3881 31.3028 56.4499 43.3407 52.3249 50.5143C51.8849 51.2795 52.26 52.3105 53.068 52.6662C54.4368 53.2689 56.1636 53.9165 58.9822 53.3968C60.875 53.0477 63.6928 50.7982 64.8461 49.5476L71.2725 39.3669L86.9137 51.0141L42.4316 60.8702C41.4675 61.0838 41.0432 62.2209 41.6285 63.0162C42.6829 64.4487 44.0922 66.3847 44.5609 67.1276C45.3431 68.3673 50.2057 68.9699 52.5393 69.1162C53.4672 71.0211 53.3414 73.4661 56.9082 75.9223C58.1764 76.7956 61.7398 77.1072 63.363 77.1539L90.8009 72.0944L106.522 91.6826C100.455 91.3022 89.2121 91.6225 85.0981 91.8276C81.518 92.006 77.4656 96.254 75.8845 99.5144C75.5372 100.231 76.0226 101.015 76.8072 101.148C84.6898 102.49 100.838 104.494 110.179 105.886C122.631 107.741 129.042 95.6229 131.663 92.9301Z" fill="white"></path><path d="M52.8741 69.0547L88.8266 61.387" stroke="#1E1E1E" stroke-width="1.361" stroke-linecap="round" stroke-linejoin="round"></path><path d="M56.5238 43.8166C57.2753 44.1393 57.8575 46.5461 57.2025 47.4973C56.5476 48.4484 55.3626 50.0278 54.4735 51.4604" stroke="#1E1E1E" stroke-width="1.361" stroke-linecap="round" stroke-linejoin="round"></path><path d="M67.2617 17.6176C68.6033 18.6388 71.4873 20.6442 72.2903 20.4961C73.0934 20.348 74.245 19.213 74.7204 18.6641" stroke="#1E1E1E" stroke-width="1.361" stroke-linecap="round" stroke-linejoin="round"></path><path d="M50.6885 59.0781C50.853 59.9704 50.7136 61.8413 48.8398 62.1869C46.966 62.5324 45.6053 62.7833 45.1591 62.8656" stroke="#1E1E1E" stroke-width="1.361" stroke-linecap="round" stroke-linejoin="round"></path><path d="M62.2432 67.327C62.4077 68.2193 62.2683 70.0902 60.3945 70.4358C58.5207 70.7813 57.16 71.0322 56.7138 71.1145" stroke="#1E1E1E" stroke-width="1.361" stroke-linecap="round" stroke-linejoin="round"></path><path d="M88.4649 102.415C88.4649 100.374 87.1248 99.0656 85.3284 98.7049C83.4603 98.3298 80.7815 97.8134 80.3354 97.8957" stroke="#1E1E1E" stroke-width="1.361" stroke-linecap="round" stroke-linejoin="round"></path><path d="M153.023 79.3021C141.153 78.7231 138.645 85.7593 131.663 92.9301C129.042 95.6229 122.631 107.741 110.179 105.886C100.838 104.494 84.6898 102.49 76.8072 101.148C76.0226 101.015 75.5372 100.231 75.8845 99.5144C77.4656 96.2541 81.518 92.006 85.0981 91.8275C89.2121 91.6225 100.455 91.3022 106.522 91.6826L90.8009 72.0944C90.8009 72.0944 65.328 76.8963 63.363 77.1539C61.3981 77.4115 58.1764 76.7956 56.9082 75.9223C53.3414 73.4661 53.4672 71.0211 52.5393 69.1162C50.2057 68.9699 45.6701 68.0859 44.5609 67.1276C43.5375 66.2434 42.2185 64.3011 41.3378 62.9071C40.8472 62.1307 41.2886 61.1234 42.1853 60.9247L86.9137 51.0141L71.2725 39.3669L64.8461 49.5476C63.6928 50.7982 60.875 53.0477 58.9822 53.3968C56.1636 53.9165 54.4368 53.2689 53.068 52.6662C52.26 52.3105 51.8849 51.2795 52.3249 50.5143C56.4499 43.3407 63.3881 31.3028 63.7948 30.7122C64.2314 30.0781 66.5183 28.5955 68.1091 27.8408L63.8636 21.7039C63.0615 17.3541 63.8991 14.0165 65.4559 13.4526C67.0127 12.8888 108.048 40.5431 128.372 54.4407" stroke="#1E1E1E" stroke-width="1.361" stroke-linecap="round" stroke-linejoin="round"></path><path d="M68.0502 27.9005C68.7898 27.5334 71.0784 27.4317 73.8331 28.8613C76.5878 30.2908 83.4767 35.502 86.5768 37.9289" stroke="#1E1E1E" stroke-width="1.361" stroke-linecap="round" stroke-linejoin="round"></path></svg> 