<?xml version="1.0" encoding="UTF-8"?> <svg xmlns="http://www.w3.org/2000/svg" width="50" height="50" viewBox="0 0 50 50" fill="none"><path fill-rule="evenodd" clip-rule="evenodd" d="M25 9C29.1421 9 32.5 12.3579 32.5 16.5V21.5C32.5 22.8807 33.6193 24 35 24C36.3807 24 37.5 22.8807 37.5 21.5V16.5C37.5 9.59644 31.9036 4 25 4C18.0964 4 12.5 9.59644 12.5 16.5C12.5 17.8807 13.6193 19 15 19C16.3807 19 17.5 17.8807 17.5 16.5C17.5 12.3579 20.8579 9 25 9Z" fill="#235AF3"></path><path d="M10 23C10 21.8954 10.8954 21 12 21H38C39.1046 21 40 21.8954 40 23V40C40 42.2091 38.2091 44 36 44H14C11.7909 44 10 42.2091 10 40V23Z" fill="#D1BCE3"></path><path d="M27 33.4649C28.1956 32.7733 29 31.4806 29 30C29 27.7909 27.2091 26 25 26C22.7909 26 21 27.7909 21 30C21 31.4806 21.8044 32.7733 23 33.4649V39C23 39.5523 23.4477 40 24 40H26C26.5523 40 27 39.5523 27 39V33.4649Z" fill="#235AF3"></path></svg> 